<svg id="Layer_1" enable-background="new 0 0 68 68" height="512" viewBox="0 0 68 68" width="512" xmlns="http://www.w3.org/2000/svg"><g id="_x35_"><g><g><g><g><path d="m63.5814896 36.2649384-41.2045212 22.6769828c-2.2589283 1.243206-5.0979729.4197998-6.3411808-1.8391342l-12.5565136-22.8154182c-1.2432075-2.258934-.4198017-5.0979767 1.8391283-6.3411827l41.2045212-22.676981c2.2589302-1.243206 5.0979729-.4197984 6.3411789 1.8391328l12.5565147 22.8154221c1.2432089 2.2589297.4197989 5.0979723-1.8391275 6.3411784z" fill="#febc1f"/></g></g><g><g><path d="m62.6815987 34.6298218-41.2045212 22.676979c-2.2589283 1.243206-5.0979729.4197998-6.3411798-1.8391304l-12.5565146-22.815422c-1.2432075-2.2589302-.4198017-5.0979748 1.8391283-6.3411808l41.2045212-22.676981c2.2589302-1.2432063 5.0979729-.4197984 6.3411789 1.839133l12.5565176 22.8154214c1.2432022 2.2589302.4197998 5.0979748-1.8391304 6.3411808z" fill="#ffd475"/></g></g><g><g><g><path d="m45.6230049 3.6340563-41.2044864 22.6770265c-2.2589364 1.2432098-3.0823236 4.0822697-1.839144 6.3411503l12.556531 22.8154602s-11.7001696-22.3759117 34.6528778-51.9958496c-1.2919114-.5804889-2.829345-.5732968-4.1657784.1622126z" fill="#febc1f"/></g></g></g><g><g><path d="m6.2700973 35.4500999 1.5767589 2.8649979c.3974571.722187 1.3051071.9854317 2.0272923.5879745l43.4678116-23.9225845c.722187-.3974562.9854317-1.3051062.5879745-2.0272932l-1.5767593-2.8649998c-.3974563-.722187-1.3051063-.9854326-2.0272933-.5879764l-43.4678107 23.9225874c-.7221856.3974571-.9854307 1.3051071-.587974 2.0272941z" fill="#1d2943"/></g></g><g><g><path d="m5.8331218 34.656105 1.5767584 2.8650017c.3974571.7221832 1.3051066.9854317 2.0272927.5879745l43.4678116-23.9225883c.722187-.3974562.9854317-1.3051062.5879745-2.0272923l-1.5767593-2.8649998c-.3974571-.722187-1.3051071-.9854326-2.0272903-.5879765l-43.4678136 23.9225866c-.722186.3974571-.9854311 1.3051071-.587974 2.0272941z" fill="#4c5c75"/></g></g></g><g><g><path d="m56.1312866 64.9452744-47.0325269.0000228c-2.5784349 0-4.6686702-2.0902367-4.6686711-4.6686707l-.0000087-26.0424384c-.000001-2.578434 2.0902333-4.6686687 4.6686683-4.6686687l47.0325279-.0000191c2.578434 0 4.6686707 2.0902328 4.6686707 4.6686687l.0000076 26.0424385c-.0000009 2.578434-2.0902338 4.6686669-4.6686678 4.6686669z" fill="#5094ff"/></g></g><g><g><path d="m9.0987463 63.0788879 47.0325241.0000191c2.5784378 0 4.6686707-2.0902367 4.6686745-4.6686707l.0000076-26.0424347c0-2.5784359-2.0902328-4.6686726-4.6686668-4.6686726l-47.032528-.000019c-2.5784345 0-4.6686697 2.0902328-4.6686707 4.6686687l-.0000085 26.0424386c-.0000009 2.578434 2.0902329 4.6686706 4.6686678 4.6686706z" fill="#57b3fe"/></g></g><g><g><g><path d="m9.0987663 27.6990719 47.0325203.0000744c2.5784416 0 4.6686668 2.0902576 4.6686668 4.6686363l-.0000038 26.0424805s-.538311-25.2444992-55.4289742-28.8447552c.8519402-1.1314583 2.2023293-1.866436 3.7277909-1.866436z" fill="#5094ff"/></g></g></g><g><g><g><g><path d="m57.1417618 54.6996574v.7245789h-.0096512c.0188637.9798889-.7984848 1.8029976-1.7838097 1.8029976l-4.7369461.0000038c-.9678459 0-1.8029671-.8079567-1.7838097-1.8029976h-.0096511v-.7245789h.1157036c.2796631-.7038727 1.0414467-1.1859894 1.8416023-1.1859894l4.4091377-.0000038c.8002701 0 1.5620537.4821167 1.8417206 1.1859894z" fill="#e3e7f0"/></g></g><g><g><path d="m55.3433418 56.50811-4.5790215.0000687c-.9225769.0000114-1.7944107-.6264191-1.9239235-1.5398598-.1577072-1.1123047.7025833-2.0666733 1.7845535-2.0666847l4.5610123-.0000687c.9783401-.0000153 1.889431.709938 1.9490089 1.6864586.0661317 1.0839882-.7909735 1.9200745-1.7916297 1.9200859z" fill="#fff"/></g></g></g><g><g><g><path d="m43.5652237 54.6996613v.7245827h-.0096512c.0188637.9798851-.7984848 1.8029938-1.7838097 1.8029938l-4.7369461.0000038c-.9678459 0-1.8029671-.8079567-1.7838097-1.8029938h-.0096512v-.7245827h.1157036c.2796631-.7038727 1.0414467-1.1859894 1.8416023-1.1859894l4.4091377-.0000038c.8002701 0 1.5620537.4821167 1.8417206 1.1859894z" fill="#e3e7f0"/></g></g><g><g><path d="m41.7668037 56.5081139-4.5790253.0000687c-.9225769.0000153-1.7944069-.6264191-1.9239197-1.5398598-.1577072-1.1123009.7025833-2.0666695 1.7845535-2.0666809l4.5610123-.0000725c.9783363-.0000114 1.889431.7099419 1.9490089 1.6864624.0661317 1.0839843-.7909735 1.9200706-1.7916297 1.9200821z" fill="#fff"/></g></g></g><g><g><g><path d="m29.9886837 54.6996689v.7245789h-.0096512c.0188656.9798851-.7984829 1.8029976-1.7838097 1.8029976h-4.7369442c-.9678478 0-1.8029671-.8079529-1.7838097-1.8029938h-.0096531v-.7245827h.1157036c.279665-.7038689 1.0414486-1.1859894 1.8416023-1.1859894h4.4091377c.800272 0 1.5620556.4821167 1.8417206 1.1859894z" fill="#e3e7f0"/></g></g><g><g><path d="m28.1902657 56.5081177-4.5790234.0000725c-.9225769.0000114-1.7944088-.6264191-1.9239197-1.5398598-.1577091-1.1123047.7025814-2.0666733 1.7845497-2.0666847l4.5610161-.0000687c.9783363-.0000153 1.8894291.709938 1.9490051 1.6864586.0661316 1.0839844-.7909717 1.9200744-1.7916278 1.9200821z" fill="#fff"/></g></g></g><g><g><g><path d="m16.4121456 54.6996727v.7245827h-.0096512c.0188656.9798851-.7984838 1.8029938-1.7838097 1.8029938l-4.7369441.0000038c-.9678478 0-1.802968-.8079567-1.7838106-1.8029976h-.0096522v-.7245789h.1157036c.279665-.7038727 1.0414476-1.1859894 1.8416023-1.1859894l4.4091377-.0000038c.800272 0 1.5620556.4821167 1.8417206 1.1859894z" fill="#e3e7f0"/></g></g><g><g><path d="m14.6137276 56.5081253-4.5790243.0000687c-.9225769.0000114-1.7944078-.6264191-1.9239197-1.5398598-.1577077-1.1123009.7025814-2.0666733 1.7845497-2.0666847l4.5610161-.0000687c.9783363-.0000153 1.88943.709938 1.9490061 1.6864586.0661315 1.0839882-.7909708 1.9200745-1.7916279 1.9200859z" fill="#fff"/></g></g></g></g><g><g><g><path d="m8.0920725 35.925663.0000019 4.3564262c0 1.0981369.890214 1.9883499 1.988348 1.9883461l8.1573095-.0000229c1.098135 0 1.988348-.890213 1.988348-1.9883461l-.0000019-4.3564301c0-1.0981331-.8902149-1.9883461-1.988348-1.9883461l-8.1573105.0000229c-1.098134.0000039-1.988347.8902169-1.988347 1.98835z" fill="#febc1f"/></g></g><g><g><path d="m8.0920725 35.2468109.000001 4.3564262c.000001 1.0981331.890214 1.9883461 1.988348 1.9883461l8.1573105-.0000229c1.0981331 0 1.988348-.8902168 1.9883461-1.9883499v-4.3564262c-.0000019-1.0981331-.8902149-1.9883461-1.988348-1.9883461l-8.1573114.0000229c-1.0981342 0-1.9883472.890213-1.9883462 1.9883499z" fill="#ffd475"/></g></g></g><g><g><g><path d="m13.9477558 36.954998v-3.6965523h-.9444408v3.6965523h-4.9112435v.9444428h2.6869421v3.6921043h.9444418v-3.6921043h4.2524815v3.6921043h.9444065v-3.6921043h3.305748v-.9444428z" fill="#febc1f"/></g></g></g><g><g><g><g><path d="m56.2796402 40.2164574-5.3172913.0000305c-.443058.0000076-.8617401-.300827-.9239388-.7394943-.075737-.5341682.3374062-.9924927.8570061-.9924965l5.3086472-.0000343c.4698334-.0000076.9073715.3409386.9359818.8098984.0317611.5205688-.3798523.9220885-.860405.9220962z" fill="#fff"/></g></g></g><g><g><g><path d="m56.2796402 36.5089836-9.3353691.0000343c-.4430542.0000038-.8617401-.3008308-.9239349-.7394981-.075737-.5341682.3374023-.9924927.8570061-.9924965l9.3267212-.0000343c.4698334-.0000076.9073715.3409386.9359818.8099022.031761.5205688-.3798524.9220886-.8604051.9220924z" fill="#fff"/></g></g></g></g></g><g><g><path d="m54.8607178 16.3203678c2.2225723 2.8520584 4.0391045 5.9515629 5.4309731 9.2891464-2.225937-2.8498039-4.0357934-5.9533443-5.4309731-9.2891464z" fill="#fff"/></g></g><g><g><path d="m13.4443359 25.6074772c3.2388935-2.4783745 6.7269783-4.5519123 10.456749-6.2024593-3.2368565 2.4816837-6.7289753 4.5484409-10.456749 6.2024593z" fill="#fff"/></g></g><g><g><path d="m40.1918945 60.7349167c4.0498962-.4790192 8.107563-.4831581 12.1573486.0000458-4.0497855.4831161-8.1074485.4792175-12.1573486-.0000458z" fill="#fff"/></g></g></g></svg>