<svg id="Layer_1" enable-background="new 0 0 110 110" viewBox="0 0 110 110" xmlns="http://www.w3.org/2000/svg"><g id="_x32_1"><g><g><path d="m9.3017578 52.2463226v1.459961l-1.7800293-.5900879z" fill="#49e4a3"/></g><g><g><g><g><path d="m70.6005783 77.1909866v20.0495606l31.0282669-22.330185v-19.6699523z" fill="#28af6e"/></g><g><path d="m103 54.2712479-29.1141434 20.5962524-64.5798111-21.1628571v-12.083702l12.4552803 4.1798363s-11.24821-5.921917-14.7613258-8.7497787v-7.1105213s18.8700638 17.3124523 65.1332932 28.09688l27.8174362-20.8466721v4.2167664l2.7619781.6404037z" fill="#28af6e"/></g><g><path d="m34.9155273 46.045948v16.0507813l8.9689941 2.9392128v-15.408207c-3.2167968-1.1926269-6.2036132-2.3933105-8.9689941-3.5817871z" fill="#ffca6c"/></g><g><path d="m7.5232444 53.1195412v18.680645l63.0773339 25.440361v-20.0495606z" fill="#39c988"/></g><g><path d="m34.9575195 63.5889168v19.276104l9.1311035 3.6827392v-19.4742203z" fill="#ffca6c"/></g></g><g><path d="m73.8853836 74.8671875-3.2848053 2.3237991-63.0762844-24.0714454z" fill="#49e4a3"/></g><g><path d="m99.9516602 37.1895027-27.8200684 20.8499756c-10.5297852-2.5699463-19.9897461-5.3900146-28.3798828-8.4200439-3.1599121-1.1400146-6.1699219-2.3100586-9.0300293-3.5100098-11.9499512-5-21.2099609-10.4699707-27.7199707-16.16992 11.1601562-7.5500488 22.3901367-13.2299804 33.6999512-17.1800546 9.0209618 7.3794661 19.339756 12.5760756 30.2102051 16.5100098 8.2998046 2.999999 17.869873 5.6300039 29.0397949 7.9200429z" fill="#49e4a3"/></g><g><path d="m70.0315857 54.5289917c-24.6138649-6.217453-43.8577271-14.075573-56.2697678-22.9467697.9580555-.5961914 1.0022583-1.9751186.0840788-2.6310616 8.0736532-5.021719 16.3274422-9.1422634 24.6359138-12.2977104.8723373.6539974 2.0166779.8189716 3.0345001.4281731 12.120824 9.1561489 27.3999034 15.7538833 48.3308726 20.8252182-1.0692978.8011665-.7229385 2.4864578.5755844 2.8012276l-17.7251815 13.2836608c-.9239426-.2314109-1.904953-.0354766-2.6660004.537262z" fill="#39c988"/></g><g><path d="m103 54.2712479-29.1141434 20.5962524v-11.1955147l28.8268509-21.6241302z" fill="#39c988"/></g><g><path d="m99.9507294 37.1906853v4.2167663l-27.8174362 20.6384621v-4.0085564z" fill="#39c988"/></g><g><path d="m102.7127075 42.0478554-28.8268509 21.6241302-1.7525634-1.6260719 27.8174362-20.6384621z" fill="#49e4a3"/></g><g><path d="m21.7613258 45.8007774-12.4552803-4.1798362 2.7251091-1.2571259s6.7705326 4.0164681 9.7301712 5.4369621z" fill="#39c988"/></g><g><path d="m101.6295624 55.2394867v9.4271164l-27.7437058 10.2019348z" fill="#189453"/></g></g><g><path d="m63.2246475 32.8286362s6.5372696 4.0291328-4.1983185 8.5059204-15.344841 1.2819138-16.4728279-.6954231c-.5587044-.9794006-.545887-5.4645348 5.886776-8.2462273s12.5065651-1.1594257 14.7843704.43573z" fill="#49e4a3"/></g><g><path d="m74.6220551 46.5453377c-4.5336838 1.890564-6.4801865.5413551-6.956543-.2936821-.235939-.4136047-.2305298-2.3076935 2.4860153-3.4824142 4.6489487-2.0103608 10.5269623 1.2505378 4.4705277 3.7760963z" fill="#49e4a3"/></g><g><path d="m28.3375664 29.4653931s-2.76054-1.7013893 1.7731209-3.5919704c4.5336609-1.8905792 6.4800339-.5414715 6.9563255.2935219.2359123.4135818.2303925 2.3075943-2.4861336 3.4823208s-5.2814522.4897212-6.2433128-.1838723z" fill="#49e4a3"/></g></g></g><g><path d="m70.9118652 29.2694607-27.1601562 20.3499737c-3.1599121-1.1400146-6.1699219-2.3100586-9.0300293-3.5100098l27.2700195-20.4399395c2.8000488 1.2600098 5.7700196 2.4599609 8.920166 3.5999756z" fill="#ffde9b"/></g><g><path d="m36.3325081 62.5604782-1.3749886 1.0284386c2.8601074 1.199955 5.9455566 2.3552284 9.1054688 3.4953651l1.8475647-1.3843155z" fill="#ffde9b"/></g></g></svg>