<svg id="Layer_1" enable-background="new 0 0 68 68" height="512" viewBox="0 0 68 68" width="512" xmlns="http://www.w3.org/2000/svg"><g id="_x31_5"><g><g><g><g><g><path d="m11 29.3h45.9v31.1h-45.9z" fill="#4c5c75"/></g><g><g><g><g><path d="m59.2 57.8h-5.5c-.5-7.9-.5-15.9 0-23.8h5.5c.5 8.1.5 16 0 23.8z" fill="#f3f1fc"/></g><g><path d="m59.2 57.9c.6-7.7.6-15.4 0-23.3 0 0-.4 13.9-5.5 22.7v.5z" fill="#e9e7fc"/></g><g><path d="m59.2 34.6h-5.5c-.5 0-.9-.4-.9-.9v-1.5c0-.5.4-.9.9-.9h5.5c.5 0 .9.4.9.9v1.5c0 .5-.4.9-.9.9z" fill="#dedffb"/></g><g><path d="m59.2 60.7h-5.5c-.5 0-.9-.4-.9-.9v-1.5c0-.5.4-.9.9-.9h5.5c.5 0 .9.4.9.9v1.5c0 .5-.4.9-.9.9z" fill="#dedffb"/></g></g><g><g><path d="m47.3 57.8h-5.5c-.5-7.9-.5-15.9 0-23.8h5.5c.5 8.1.6 16 0 23.8z" fill="#f3f1fc"/></g><g><path d="m47.3 57.9c.6-7.7.6-15.4 0-23.3 0 0-.4 13.9-5.5 22.7v.5z" fill="#e9e7fc"/></g><g><path d="m47.3 34.6h-5.5c-.5 0-.9-.4-.9-.9v-1.5c0-.5.4-.9.9-.9h5.5c.5 0 .9.4.9.9v1.5c0 .5-.4.9-.9.9z" fill="#dedffb"/></g><g><path d="m47.3 60.7h-5.5c-.5 0-.9-.4-.9-.9v-1.5c0-.5.4-.9.9-.9h5.5c.5 0 .9.4.9.9v1.5c0 .5-.4.9-.9.9z" fill="#dedffb"/></g></g></g><g><g><g><path d="m26.2 57.8h-5.5c-.5-7.9-.5-15.9 0-23.8h5.5c.6 8.1.6 16 0 23.8z" fill="#f3f1fc"/></g><g><path d="m26.2 57.9c.6-7.7.6-15.4 0-23.3 0 0-.4 13.9-5.5 22.7v.5z" fill="#e9e7fc"/></g><g><path d="m26.2 34.6h-5.5c-.5 0-.9-.4-.9-.9v-1.5c0-.5.4-.9.9-.9h5.5c.5 0 .9.4.9.9v1.5c0 .5-.4.9-.9.9z" fill="#dedffb"/></g><g><path d="m26.2 60.7h-5.5c-.5 0-.9-.4-.9-.9v-1.5c0-.5.4-.9.9-.9h5.5c.5 0 .9.4.9.9v1.5c0 .5-.4.9-.9.9z" fill="#dedffb"/></g></g><g><g><path d="m14.3 57.8h-5.5c-.5-7.9-.5-15.8 0-23.8h5.5c.6 8.1.6 16 0 23.8z" fill="#f3f1fc"/></g><g><path d="m14.3 57.9c.6-7.7.6-15.4 0-23.3 0 0-.4 13.9-5.5 22.7v.5z" fill="#e9e7fc"/></g><g><path d="m14.3 34.6h-5.5c-.5 0-.9-.4-.9-.9v-1.5c0-.5.4-.9.9-.9h5.5c.5 0 .9.4.9.9v1.5c0 .5-.4.9-.9.9z" fill="#dedffb"/></g><g><path d="m14.3 60.7h-5.5c-.5 0-.9-.4-.9-.9v-1.5c0-.5.4-.9.9-.9h5.5c.5 0 .9.4.9.9v1.5c0 .5-.4.9-.9.9z" fill="#dedffb"/></g></g></g></g><g><path d="m5 25.7h58v3.4h-58z" fill="#f3f1fc"/></g><g><path d="m60.1 32.5 2.9-3.4h-58l2.9 3.4z" fill="#b0b8cf"/></g><g><path d="m61.6 59.2h-55.2c-.7 0-1.4.6-1.4 1.4v1.7h57.8v-1.7c.1-.8-.5-1.4-1.2-1.4z" fill="#c9cee2"/></g><g><g><path d="m62.9 62.3v-1.7c-20.6-.2-36.2.9-57.8.9v.8z" fill="#9ea9c9"/></g></g><g><path d="m64.2 61.4h-60.4c-.7 0-1.4.6-1.4 1.4v2.2c0 .5.4 1 1 1h61.1c.5 0 1-.4 1-1v-2.2c0-.8-.6-1.4-1.3-1.4z" fill="#c9cee2"/></g></g><g><path d="m64.1 22.7-29.1-20.3c-.7-.5-1.7-.5-2.5 0l-29.1 20.3c-1.3.9-.7 3 .9 3h58.8c1.6 0 2.3-2.1 1-3z" fill="#c9cee2"/></g><g><path d="m11.8 21.7 21.9-15.3 21.9 15.3z" fill="#9ea9c9"/></g></g><g><g><path d="m3.5 66h61.1c.5 0 1-.4 1-1v-2.2s-36.1 4.3-63.1 2.2c0 .6.4 1 1 1z" fill="#b0b8cf"/></g></g></g><g><path d="m33.8 13.9v-2c.4 0 .8.1 1.2.2.7.3 1-.8.4-1-.5-.2-1-.3-1.5-.3v-.5c0-.6-.8-.6-.8 0v.5c-1.2.1-2.1.9-2.1 2 0 1.2 1 1.6 2.1 1.9v1.9c-.5 0-1-.2-1.4-.4-.7-.3-1.1.7-.4 1 .6.2 1.2.4 1.8.4v.5c0 .6.8.6.8 0v-.5c1.4-.1 2.2-1 2.2-1.9-.1-1.1-1.1-1.5-2.3-1.8zm-.8-.3c-.5-.1-1-.3-1-.8s.5-.8 1-.9zm.8 3.1v-1.7c.5.1 1 .3 1 .8.1.5-.3.8-1 .9z" fill="#fff"/></g></g><g><path d="m23.3 23.8c-2 .3-4 .4-6 .4-1.9 0-4.1-.1-6-.4 1.9-.3 4.1-.4 6-.4 2 0 4 .1 6 .4z" fill="#fff"/></g><g><path d="m53.3 62.8c-2 .3-4 .4-6 .4-1.9 0-4.1-.1-6-.4 1.9-.3 4.1-.4 6-.4 2 0 4 .1 6 .4z" fill="#fff"/></g><g><path d="m53.2 17.8c-1.8-.9-3.4-2-5-3.2-1.5-1.1-3.2-2.5-4.6-3.8 1.7.9 3.5 2.1 5 3.2 1.6 1.2 3.1 2.4 4.6 3.8z" fill="#fff"/></g></g></svg>